<?xml version="1.0" encoding="UTF-8"?>
<!DOCTYPE svg PUBLIC "-//W3C//DTD SVG 1.1//EN" "http://www.w3.org/Graphics/SVG/1.1/DTD/svg11.dtd">
<svg xmlns="http://www.w3.org/2000/svg" version="1.1" width="4261px" height="912px" style="shape-rendering:geometricPrecision; text-rendering:geometricPrecision; image-rendering:optimizeQuality; fill-rule:evenodd; clip-rule:evenodd" xmlns:xlink="http://www.w3.org/1999/xlink">
<g><path style="opacity:1" fill="#fdfdfd" d="M -0.5,-0.5 C 1419.83,-0.5 2840.17,-0.5 4260.5,-0.5C 4260.5,303.5 4260.5,607.5 4260.5,911.5C 2840.17,911.5 1419.83,911.5 -0.5,911.5C -0.5,607.5 -0.5,303.5 -0.5,-0.5 Z"/></g>
<g><path style="opacity:1" fill="#f58634" d="M 51.5,539.5 C 38.9887,539.829 26.6554,539.495 14.5,538.5C 130.827,419.34 246.994,300.006 363,180.5C 465.146,75.2214 589.313,31.7214 735.5,50C 789.645,58.2687 840.145,76.4354 887,104.5C 887.667,105.167 887.667,105.833 887,106.5C 843.958,150.041 801.125,193.708 758.5,237.5C 667.704,206.408 585.37,221.242 511.5,282C 438.123,352.319 414.29,436.819 440,535.5C 467.861,618.028 523.361,672.195 606.5,698C 688.02,718.196 761.687,702.529 827.5,651C 890.626,595.21 919.459,525.043 914,440.5C 910.628,410.735 902.628,382.401 890,355.5C 932.696,312.471 975.029,269.138 1017,225.5C 1085.25,328.077 1106.25,439.743 1080,560.5C 1050.69,676.718 984.854,765.551 882.5,827C 778.952,884.655 669.952,897.989 555.5,867C 433.218,829.05 344.718,752.217 290,636.5C 276.039,604.819 265.873,571.986 259.5,538C 190.16,537.475 120.826,537.975 51.5,539.5 Z"/></g>
<g><path style="opacity:1" fill="#606060" d="M 2725.5,44.5 C 2769.5,44.5 2813.5,44.5 2857.5,44.5C 2857.5,262.167 2857.5,479.833 2857.5,697.5C 2813.5,697.5 2769.5,697.5 2725.5,697.5C 2725.5,479.833 2725.5,262.167 2725.5,44.5 Z"/></g>
<g><path style="opacity:1" fill="#000000" d="M 2726.5,45.5 C 2769.83,45.5 2813.17,45.5 2856.5,45.5C 2856.5,262.5 2856.5,479.5 2856.5,696.5C 2813.17,696.5 2769.83,696.5 2726.5,696.5C 2726.5,479.5 2726.5,262.5 2726.5,45.5 Z"/></g>
<g><path style="opacity:1" fill="#000000" d="M 4109.5,84.5 C 4109.5,129.167 4109.5,173.833 4109.5,218.5C 4145.83,218.5 4182.17,218.5 4218.5,218.5C 4218.5,255.167 4218.5,291.833 4218.5,328.5C 4182.17,328.5 4145.83,328.5 4109.5,328.5C 4109.17,399.669 4109.5,470.669 4110.5,541.5C 4108.44,567.925 4120.44,582.759 4146.5,586C 4172.5,586.5 4198.5,586.667 4224.5,586.5C 4224.5,623.167 4224.5,659.833 4224.5,696.5C 4177.15,696.938 4129.81,696.438 4082.5,695C 4051.67,690.837 4025.84,677.337 4005,654.5C 3989.13,631.376 3980.46,605.71 3979,577.5C 3978.5,494.834 3978.33,412.167 3978.5,329.5C 3952.17,329.5 3925.83,329.5 3899.5,329.5C 3899.5,292.5 3899.5,255.5 3899.5,218.5C 3925.83,218.5 3952.17,218.5 3978.5,218.5C 3978.5,173.833 3978.5,129.167 3978.5,84.5C 4022.17,84.5 4065.83,84.5 4109.5,84.5 Z"/></g>
<g><path style="opacity:1" fill="#bfbfbf" d="M 4109.5,84.5 C 4110.5,128.664 4110.83,172.997 4110.5,217.5C 4146.67,217.168 4182.67,217.502 4218.5,218.5C 4182.17,218.5 4145.83,218.5 4109.5,218.5C 4109.5,173.833 4109.5,129.167 4109.5,84.5 Z"/></g>
<g><path style="opacity:1" fill="#000000" d="M 3864.5,365.5 C 3822.76,365.827 3781.09,365.494 3739.5,364.5C 3736.11,344.927 3725.78,330.094 3708.5,320C 3688.47,308.805 3666.97,303.972 3644,305.5C 3620.47,304.134 3598.97,309.968 3579.5,323C 3563.45,336.497 3559.28,352.997 3567,372.5C 3572.23,379.708 3579.06,384.875 3587.5,388C 3591.5,389.333 3595.5,390.667 3599.5,392C 3639.12,397.958 3678.78,403.624 3718.5,409C 3754.26,415.105 3788.26,426.439 3820.5,443C 3850.66,462.122 3867.49,489.622 3871,525.5C 3876.87,591.268 3851.04,640.101 3793.5,672C 3761.08,688.356 3726.74,698.023 3690.5,701C 3634.89,707.2 3581.22,699.867 3529.5,679C 3497.63,664.794 3471.47,643.627 3451,615.5C 3436.63,591.882 3428.8,566.215 3427.5,538.5C 3468.83,538.5 3510.17,538.5 3551.5,538.5C 3551.26,539.791 3551.6,540.791 3552.5,541.5C 3555.81,561.627 3565.81,577.46 3582.5,589C 3602.88,601.981 3625.21,608.481 3649.5,608.5C 3671.1,609.105 3692.1,605.938 3712.5,599C 3739.82,587.868 3749.65,568.035 3742,539.5C 3735.62,528.374 3726.12,521.207 3713.5,518C 3686.52,511.576 3659.18,507.243 3631.5,505C 3593.07,499.974 3555.4,491.64 3518.5,480C 3459.11,457.745 3432.28,414.911 3438,351.5C 3445.01,303.171 3469.51,266.671 3511.5,242C 3542.4,225.086 3575.4,215.086 3610.5,212C 3658.21,208.549 3704.88,213.883 3750.5,228C 3783.34,239.158 3811.18,257.658 3834,283.5C 3852.56,307.661 3862.72,334.994 3864.5,365.5 Z"/></g>
<g><path style="opacity:1" fill="#000000" d="M 1778.5,392.5 C 1778.5,393.833 1778.5,395.167 1778.5,396.5C 1733.5,396.5 1688.5,396.5 1643.5,396.5C 1628.79,343.968 1594.13,318.468 1539.5,320C 1500.95,323.25 1472.45,341.75 1454,375.5C 1437.59,407.905 1431.59,442.238 1436,478.5C 1438.62,514.229 1452.45,544.729 1477.5,570C 1509.1,595.382 1544.43,602.048 1583.5,590C 1617.05,576.604 1637.38,552.104 1644.5,516.5C 1689.5,515.167 1734.5,515.167 1779.5,516.5C 1760.97,619.861 1699.97,680.694 1596.5,699C 1539.96,708.145 1485.29,701.812 1432.5,680C 1365.87,648.018 1324.37,595.852 1308,523.5C 1297.55,471.275 1299.55,419.608 1314,368.5C 1338.76,296.077 1387.59,248.243 1460.5,225C 1497.45,214.508 1535.11,210.841 1573.5,214C 1629.93,216.488 1678.77,236.654 1720,274.5C 1751.44,307.71 1770.94,347.043 1778.5,392.5 Z"/></g>
<g><path style="opacity:1" fill="#000000" d="M 2387.5,212.5 C 2430.34,210.793 2472,216.96 2512.5,231C 2597.39,266.222 2644.22,329.722 2653,421.5C 2654.16,443.602 2653.33,465.602 2650.5,487.5C 2534.83,487.5 2419.17,487.5 2303.5,487.5C 2303.95,524.038 2317.28,554.872 2343.5,580C 2370.98,599.77 2401.65,607.103 2435.5,602C 2460.83,599.081 2482.33,588.581 2500,570.5C 2508.19,560.122 2513.69,548.456 2516.5,535.5C 2559.84,535.167 2603.17,535.5 2646.5,536.5C 2630.14,615.362 2583.48,666.862 2506.5,691C 2441.92,707.994 2377.92,705.994 2314.5,685C 2240.14,656.632 2193.3,603.799 2174,526.5C 2165.25,485.04 2164.25,443.373 2171,401.5C 2192.41,300.419 2253.58,238.919 2354.5,217C 2365.7,215.899 2376.7,214.399 2387.5,212.5 Z"/></g>
<g><path style="opacity:1" fill="#d1d1d1" d="M 3041.5,218.5 C 2995,218.168 2948.66,218.501 2902.5,219.5C 2901.96,219.44 2901.62,219.107 2901.5,218.5C 2948.33,217.169 2995,217.169 3041.5,218.5 Z"/></g>
<g><path style="opacity:1" fill="#d1d1d1" d="M 3271.5,218.5 C 3318.33,217.501 3365.33,217.168 3412.5,217.5C 3412.74,218.791 3412.4,219.791 3411.5,220.5C 3365.18,218.505 3318.51,217.838 3271.5,218.5 Z"/></g>
<g><path style="opacity:1" fill="#000000" d="M 1982.5,445.5 C 1981.5,528.998 1981.17,612.665 1981.5,696.5C 1937.83,696.5 1894.17,696.5 1850.5,696.5C 1850.5,537.167 1850.5,377.833 1850.5,218.5C 1890.5,218.5 1930.5,218.5 1970.5,218.5C 1973.73,242.257 1977.56,265.923 1982,289.5C 2007.85,246.372 2046.02,222.872 2096.5,219C 2111.5,218.5 2126.5,218.333 2141.5,218.5C 2141.5,258.167 2141.5,297.833 2141.5,337.5C 2118.83,337.333 2096.16,337.5 2073.5,338C 2034.83,341.348 2008,360.848 1993,396.5C 1987.12,412.312 1983.62,428.645 1982.5,445.5 Z"/></g>
<g><path style="opacity:1" fill="#000000" d="M 3041.5,218.5 C 3080.42,332.768 3119.26,447.101 3158,561.5C 3195.95,447.164 3233.78,332.831 3271.5,218.5C 3318.51,217.838 3365.18,218.505 3411.5,220.5C 3342.07,398.363 3272.91,576.363 3204,754.5C 3197.28,771.614 3190.28,788.614 3183,805.5C 3175.59,822.674 3165.92,838.34 3154,852.5C 3133.73,872.541 3109.23,882.541 3080.5,882.5C 3035.17,882.5 2989.83,882.5 2944.5,882.5C 2944.5,845.833 2944.5,809.167 2944.5,772.5C 2972.5,772.667 3000.5,772.5 3028.5,772C 3039.74,770.927 3049.57,766.76 3058,759.5C 3061.25,755.341 3064.25,751.008 3067,746.5C 3073.93,731.142 3080.43,715.642 3086.5,700C 3025.06,539.844 2963.73,379.677 2902.5,219.5C 2948.66,218.501 2995,218.168 3041.5,218.5 Z"/></g>
<g><path style="opacity:1" fill="#fdfdfd" d="M 2522.5,401.5 C 2450.16,402.164 2378.16,401.497 2306.5,399.5C 2314.99,351.175 2343.32,322.008 2391.5,312C 2428.31,306.002 2461.31,314.336 2490.5,337C 2509.01,354.528 2519.68,376.028 2522.5,401.5 Z"/></g>
<g><path style="opacity:1" fill="#9f9f9f" d="M 4218.5,328.5 C 4182.67,329.498 4146.67,329.832 4110.5,329.5C 4110.5,400.167 4110.5,470.833 4110.5,541.5C 4109.5,470.669 4109.17,399.669 4109.5,328.5C 4145.83,328.5 4182.17,328.5 4218.5,328.5 Z"/></g>
<g><path style="opacity:1" fill="#1c1c1c" d="M 3739.5,364.5 C 3781.09,365.494 3822.76,365.827 3864.5,365.5C 3843.84,366.167 3823,366.5 3802,366.5C 3780.82,366.5 3759.99,365.833 3739.5,364.5 Z"/></g>
<g><path style="opacity:1" fill="#5e5e5e" d="M 1778.5,392.5 C 1779.45,393.919 1779.78,395.585 1779.5,397.5C 1734,397.832 1688.66,397.499 1643.5,396.5C 1688.5,396.5 1733.5,396.5 1778.5,396.5C 1778.5,395.167 1778.5,393.833 1778.5,392.5 Z"/></g>
<g><path style="opacity:1" fill="#474747" d="M 2306.5,399.5 C 2378.16,401.497 2450.16,402.164 2522.5,401.5C 2450.34,402.499 2378,402.833 2305.5,402.5C 2305.26,401.209 2305.6,400.209 2306.5,399.5 Z"/></g>
<g><path style="opacity:1" fill="#3f3f3f" d="M 3427.5,538.5 C 3469,537.501 3510.66,537.168 3552.5,537.5C 3552.5,538.833 3552.5,540.167 3552.5,541.5C 3551.6,540.791 3551.26,539.791 3551.5,538.5C 3510.17,538.5 3468.83,538.5 3427.5,538.5 Z"/></g>
<g><path style="opacity:1" fill="#fcd5b9" d="M 14.5,538.5 C 26.6554,539.495 38.9887,539.829 51.5,539.5C 38.9938,540.825 26.3271,540.825 13.5,539.5C 13.6236,538.893 13.9569,538.56 14.5,538.5 Z"/></g>
<g><path style="opacity:1" fill="#929292" d="M 1982.5,445.5 C 1982.5,529.5 1982.5,613.5 1982.5,697.5C 1938.33,697.832 1894.33,697.499 1850.5,696.5C 1894.17,696.5 1937.83,696.5 1981.5,696.5C 1981.17,612.665 1981.5,528.998 1982.5,445.5 Z"/></g>
<g><path style="opacity:1" fill="#424242" d="M 2944.5,772.5 C 2944.5,809.167 2944.5,845.833 2944.5,882.5C 2989.83,882.5 3035.17,882.5 3080.5,882.5C 3035,883.499 2989.34,883.832 2943.5,883.5C 2943.17,846.33 2943.5,809.33 2944.5,772.5 Z"/></g>
</svg>
