<?xml version="1.0" encoding="UTF-8"?>
<!DOCTYPE svg PUBLIC "-//W3C//DTD SVG 1.1//EN" "http://www.w3.org/Graphics/SVG/1.1/DTD/svg11.dtd">
<svg xmlns="http://www.w3.org/2000/svg" version="1.1" width="5619px" height="5619px" style="shape-rendering:geometricPrecision; text-rendering:geometricPrecision; image-rendering:optimizeQuality; fill-rule:evenodd; clip-rule:evenodd" xmlns:xlink="http://www.w3.org/1999/xlink">
<g><path style="opacity:0.271" fill="#fefdfd" d="M -0.5,-0.5 C 1872.5,-0.5 3745.5,-0.5 5618.5,-0.5C 5618.5,1872.5 5618.5,3745.5 5618.5,5618.5C 3745.5,5618.5 1872.5,5618.5 -0.5,5618.5C -0.5,3745.5 -0.5,1872.5 -0.5,-0.5 Z"/></g>
<g><path style="opacity:1" fill="#f58634" d="M 3309.5,802.5 C 3684.13,791.315 4035.46,875.815 4363.5,1056C 4382.03,1066.09 4400.03,1076.93 4417.5,1088.5C 4211.51,1300.32 4005.35,1511.99 3799,1723.5C 3605.72,1650.82 3406.89,1629.99 3202.5,1661C 2942.37,1704.96 2721.53,1821.46 2540,2010.5C 2332.73,2234.63 2226.9,2500.3 2222.5,2807.5C 2225.66,3098.93 2321.5,3354.6 2510,3574.5C 2685.24,3771.42 2902.74,3896.59 3162.5,3950C 3413.43,3996.01 3654.43,3965.34 3885.5,3858C 4108.79,3749.04 4281.29,3586.21 4403,3369.5C 4517.38,3157.59 4563.38,2931.59 4541,2691.5C 4526.59,2551.28 4488.09,2418.11 4425.5,2292C 4628.67,2083.5 4831.83,1875 5035,1666.5C 5236.97,1960.01 5353.63,2285.01 5385,2641.5C 5412.72,2999.54 5351.05,3341.2 5200,3666.5C 5053.53,3972.67 4843.69,4226.84 4570.5,4429C 4245,4664.41 3880.66,4792.74 3477.5,4814C 3047.89,4831.11 2652.56,4724.11 2291.5,4493C 1955.33,4271.5 1705.83,3976.66 1543,3608.5C 1480.69,3463.75 1435.86,3313.75 1408.5,3158.5C 1024,3162.7 639.495,3167.37 255,3172.5C 245.833,3172.33 236.667,3172.17 227.5,3172C 229.049,3170.79 230.215,3169.29 231,3167.5C 796.029,2588.8 1360.7,2009.8 1925,1430.5C 2178.68,1164.15 2483.18,979.652 2838.5,877C 2992.72,834.1 3149.72,809.267 3309.5,802.5 Z"/></g>
</svg>
